HIERARCHY
ROOT hip
{
  OFFSET 0 0 0
  CHANNELS 6 Xposition Yposition Zposition Zrotation Yrotation Xrotation
  JOINT abdomen
  {
    OFFSET 0 20.6881 -0.73152
    CHANNELS 3 Zrotation Xrotation Yrotation
    JOINT chest
    {
      OFFSET 0 11.7043 -0.48768
      CHANNELS 3 Zrotation Xrotation Yrotation
      JOINT neck
      {
        OFFSET 0 22.1894 -2.19456
        CHANNELS 3 Zrotation Xrotation Yrotation
        JOINT head
        {
          OFFSET -0.24384 7.07133 1.2192
          CHANNELS 3 Zrotation Xrotation Yrotation
          JOINT leftEye
          {
            OFFSET 4.14528 8.04674 8.04672
            CHANNELS 3 Zrotation Xrotation Yrotation
            End Site
            {
              OFFSET 1 0 0
            }
          }
          JOINT rightEye
          {
            OFFSET -3.6576 8.04674 8.04672
            CHANNELS 3 Zrotation Xrotation Yrotation
            End Site
            {
              OFFSET 1 0 0
            }
          }
        }
      }
      JOINT rCollar
      {
        OFFSET -2.68224 19.2634 -4.8768
        CHANNELS 3 Zrotation Xrotation Yrotation
        JOINT rShldr
        {
          OFFSET -8.77824 -1.95073 1.46304
          CHANNELS 3 Zrotation Xrotation Yrotation
          JOINT rForeArm
          {
            OFFSET -28.1742 -1.7115 0.48768
            CHANNELS 3 Zrotation Xrotation Yrotation
            JOINT rHand
            {
              OFFSET -22.5879 0.773209 7.07136
              CHANNELS 3 Zrotation Xrotation Yrotation
              JOINT rThumb1
              {
                OFFSET -1.2192 -0.487915 3.41376
                CHANNELS 3 Zrotation Xrotation Yrotation
                JOINT rThumb2
                {
                  OFFSET -3.37035 -0.52449 3.41376
                  CHANNELS 3 Zrotation Xrotation Yrotation
                  End Site
                  {
                    OFFSET -1.78271 -1.18214 1.43049
                  }
                }
              }
              JOINT rIndex1
              {
                OFFSET -7.75947 0.938293 5.60832
                CHANNELS 3 Zrotation Xrotation Yrotation
                JOINT rIndex2
                {
                  OFFSET -2.54057 -0.884171 1.56538
                  CHANNELS 3 Zrotation Xrotation Yrotation
                  End Site
                  {
                    OFFSET -1.62519 -0.234802 1.16502
                  }
                }
              }
              JOINT rMid1
              {
                OFFSET -8.24714 1.18213 3.41376
                CHANNELS 3 Zrotation Xrotation Yrotation
                JOINT rMid2
                {
                  OFFSET -3.10165 -0.590103 1.0647
                  CHANNELS 3 Zrotation Xrotation Yrotation
                  End Site
                  {
                    OFFSET -2.48547 -0.328903 0.83742
                  }
                }
              }
              JOINT rRing1
              {
                OFFSET -8.82822 0.546677 1.51678
                CHANNELS 3 Zrotation Xrotation Yrotation
                JOINT rRing2
                {
                  OFFSET -2.60934 -0.819778 -0.0198488
                  CHANNELS 3 Zrotation Xrotation Yrotation
                  End Site
                  {
                    OFFSET -2.33842 -0.294052 0.168128
                  }
                }
              }
              JOINT rPinky1
              {
                OFFSET -8.27202 -0.0477905 -0.4584
                CHANNELS 3 Zrotation Xrotation Yrotation
                JOINT rPinky2
                {
                  OFFSET -1.82734 -0.647385 -0.700984
                  CHANNELS 3 Zrotation Xrotation Yrotation
                  End Site
                  {
                    OFFSET -1.69225 -0.51767 -0.607171
                  }
                }
              }
            }
          }
        }
      }
      JOINT lCollar
      {
        OFFSET 2.68224 19.2634 -4.8768
        CHANNELS 3 Zrotation Xrotation Yrotation
        JOINT lShldr
        {
          OFFSET 8.77824 -1.95073 1.46304
          CHANNELS 3 Zrotation Xrotation Yrotation
          JOINT lForeArm
          {
            OFFSET 28.1742 -1.7115 0.48768
            CHANNELS 3 Zrotation Xrotation Yrotation
            JOINT lHand
            {
              OFFSET 22.5879 0.773209 7.07136
              CHANNELS 3 Zrotation Xrotation Yrotation
              JOINT lThumb1
              {
                OFFSET 1.2192 -0.487915 3.41376
                CHANNELS 3 Zrotation Xrotation Yrotation
                JOINT lThumb2
                {
                  OFFSET 3.37035 -0.52449 3.41376
                  CHANNELS 3 Zrotation Xrotation Yrotation
                  End Site
                  {
                    OFFSET 1.78271 -1.18214 1.43049
                  }
                }
              }
              JOINT lIndex1
              {
                OFFSET 7.75947 0.938293 5.60832
                CHANNELS 3 Zrotation Xrotation Yrotation
                JOINT lIndex2
                {
                  OFFSET 2.54057 -0.884171 1.56538
                  CHANNELS 3 Zrotation Xrotation Yrotation
                  End Site
                  {
                    OFFSET 1.62519 -0.234802 1.16502
                  }
                }
              }
              JOINT lMid1
              {
                OFFSET 8.24714 1.18213 3.41376
                CHANNELS 3 Zrotation Xrotation Yrotation
                JOINT lMid2
                {
                  OFFSET 3.10165 -0.590103 1.0647
                  CHANNELS 3 Zrotation Xrotation Yrotation
                  End Site
                  {
                    OFFSET 2.48547 -0.328903 0.83742
                  }
                }
              }
              JOINT lRing1
              {
                OFFSET 8.82822 0.546677 1.51678
                CHANNELS 3 Zrotation Xrotation Yrotation
                JOINT lRing2
                {
                  OFFSET 2.60934 -0.819778 -0.0198488
                  CHANNELS 3 Zrotation Xrotation Yrotation
                  End Site
                  {
                    OFFSET 2.33842 -0.294052 0.168128
                  }
                }
              }
              JOINT lPinky1
              {
                OFFSET 8.27202 -0.0477905 -0.4584
                CHANNELS 3 Zrotation Xrotation Yrotation
                JOINT lPinky2
                {
                  OFFSET 1.82734 -0.647385 -0.700984
                  CHANNELS 3 Zrotation Xrotation Yrotation
                  End Site
                  {
                    OFFSET 1.69225 -0.51767 -0.607171
                  }
                }
              }
            }
          }
        }
      }
    }
  }
  JOINT rButtock
  {
    OFFSET -8.77824 4.35084 1.2192
    CHANNELS 3 Zrotation Xrotation Yrotation
    JOINT rThigh
    {
      OFFSET 0 -1.70687 -2.19456
      CHANNELS 3 Zrotation Xrotation Yrotation
      JOINT rShin
      {
        OFFSET 0 -36.8199 0.73152
        CHANNELS 3 Zrotation Xrotation Yrotation
        JOINT rFoot
        {
          OFFSET 0.73152 -45.1104 -5.12064
          CHANNELS 3 Zrotation Xrotation Yrotation
          End Site
          {
            OFFSET -1.1221 -3.69964 12.103
          }
        }
      }
    }
  }
  JOINT lButtock
  {
    OFFSET 8.77824 4.35084 1.2192
    CHANNELS 3 Zrotation Xrotation Yrotation
    JOINT lThigh
    {
      OFFSET 0 -1.70687 -2.19456
      CHANNELS 3 Zrotation Xrotation Yrotation
      JOINT lShin
      {
        OFFSET 0 -36.8199 0.73152
        CHANNELS 3 Zrotation Xrotation Yrotation
        JOINT lFoot
        {
          OFFSET -0.73152 -45.1104 -5.12064
          CHANNELS 3 Zrotation Xrotation Yrotation
          End Site
          {
            OFFSET 1.1221 -3.69964 12.103
          }
        }
      }
    }
  }
}
MOTION
Frames:	6
Frame Time:	0.00833333
-67.0622 83.7411 72.9938 0.1988 18.9746 0.6249 2.77887 19.1858 6.64141 -1.06715 -7.76709 1.93714 -10.2826 3.08203 -2.21472 7.54641 29.6648 -2.9008 -0.0 0.0 0.0 -0.0 0.0 0.0 1.19981e-13 -4.34991e-14 -7.02743e-13 72.1801 52.6917 3.16662 -28.3816 -33.9551 73.6302 -0.126846 -10.1015 -1.43473 2.65233e-10 5.66113e-10 -3.85564e-10 4.70436e-10 9.75602e-10 -6.66117e-10 2.65235e-10 5.66103e-10 -3.85573e-10 7.73091 5.47488 0.417314 2.65233e-10 5.66111e-10 -3.85566e-10 2.90554 0.965183 0.102902 2.65237e-10 5.66107e-10 -3.8556e-10 10.2786 0.731801 0.0259123 2.65228e-10 5.66109e-10 -3.85551e-10 2.22167 -0.733487 -0.20892 1.19921e-13 -4.34945e-14 -7.02998e-13 -71.5824 63.1367 -9.65789 27.9732 -30.4547 -67.9747 0.0411565 -5.78227 0.81544 -1.86685e-09 -3.3631e-09 4.04312e-09 -3.24139e-09 -5.89642e-09 6.98827e-09 -1.86685e-09 -3.36311e-09 4.04312e-09 -7.73091 5.47488 -0.417314 -1.86685e-09 -3.36311e-09 4.04311e-09 -2.90554 0.965183 -0.102902 -1.86685e-09 -3.3631e-09 4.04312e-09 -10.2786 0.731801 -0.0259123 -1.86684e-09 -3.3631e-09 4.04311e-09 -2.22167 -0.733487 0.20892 -2.03217e-16 0.0 -3.88251e-19 -4.12267 -18.0181 0.141801 -0.163345 27.8178 0.393851 1.32885 -7.72069 7.78571 2.03217e-16 0.0 3.88251e-19 4.41211 -13.8778 -7.01238 0.0771514 23.7342 -0.396891 0.451452 -12.9818 0.452663
-67.373 83.8264 73.2644 -0.6913 19.9854 0.0728 2.73303 18.9799 6.56332 -0.952318 -7.67276 1.9206 -10.275 3.12427 -2.25956 7.59351 29.6219 -2.96432 -0.0 0.0 0.0 -0.0 0.0 0.0 1.34365e-13 -6.36113e-14 -7.25117e-13 72.0763 52.7437 3.06337 -28.3808 -33.9323 73.589 -0.124652 -10.0163 -1.42237 2.97118e-10 8.5864e-10 -5.28382e-10 5.26575e-10 1.48196e-09 -9.13152e-10 2.97121e-10 8.58627e-10 -5.28392e-10 7.73091 5.47488 0.417314 2.97119e-10 8.58634e-10 -5.28382e-10 2.90554 0.965183 0.102902 2.97121e-10 8.58634e-10 -5.28378e-10 10.2786 0.731801 0.0259123 2.97114e-10 8.58636e-10 -5.2837e-10 2.22167 -0.733487 -0.20892 1.34351e-13 -6.36111e-14 -7.25365e-13 -71.5674 63.2203 -9.72599 27.9767 -30.4753 -68.0077 0.0398734 -5.68999 0.802342 -1.77365e-09 -4.54575e-09 3.97718e-09 -3.0794e-09 -7.93735e-09 6.87412e-09 -1.77366e-09 -4.54576e-09 3.97717e-09 -7.73091 5.47488 -0.417314 -1.77365e-09 -4.54575e-09 3.97717e-09 -2.90554 0.965183 -0.102902 -1.77365e-09 -4.54574e-09 3.97718e-09 -10.2786 0.731801 -0.0259123 -1.77365e-09 -4.54575e-09 3.97717e-09 -2.22167 -0.733487 0.20892 -2.03217e-16 0.0 -3.88251e-19 -4.25956 -17.7057 -0.314297 -0.161637 27.691 0.394321 1.17093 -7.79601 7.03042 2.03217e-16 0.0 3.88251e-19 4.62011 -13.9171 -6.32366 0.0734127 23.5182 -0.404014 1.15951 -12.5964 2.93117
-67.5682 83.881 73.46 -1.0917 21.1417 -0.1741 2.75947 18.766 6.44946 -0.841505 -7.59022 1.89678 -10.3095 3.14073 -2.29833 7.77373 29.6347 -3.04015 -0.0 0.0 0.0 -0.0 0.0 0.0 1.31655e-13 -9.75366e-14 -6.14047e-13 71.9034 52.8097 3.03911 -28.3799 -33.9063 73.5429 -0.125807 -10.0623 -1.42903 3.07221e-10 2.23077e-09 -1.16799e-09 5.48342e-10 3.85723e-09 -2.01968e-09 3.07224e-10 2.23076e-09 -1.168e-09 7.73091 5.47488 0.417314 3.07221e-10 2.23076e-09 -1.16799e-09 2.90554 0.965183 0.102902 3.07224e-10 2.23076e-09 -1.16799e-09 10.2786 0.731801 0.0259123 3.07217e-10 2.23077e-09 -1.16798e-09 2.22167 -0.733487 -0.20892 1.31653e-13 -9.75458e-14 -6.14314e-13 -71.5094 63.3069 -9.83038 27.9769 -30.4768 -68.0103 0.0390686 -5.63139 0.794026 -1.62385e-09 -4.46681e-09 4.03391e-09 -2.82136e-09 -7.80512e-09 6.97157e-09 -1.62386e-09 -4.46682e-09 4.03391e-09 -7.73091 5.47488 -0.417314 -1.62385e-09 -4.46681e-09 4.03391e-09 -2.90554 0.965183 -0.102902 -1.62385e-09 -4.4668e-09 4.03391e-09 -10.2786 0.731801 -0.0259123 -1.62385e-09 -4.46681e-09 4.0339e-09 -2.22167 -0.733487 0.20892 -2.03217e-16 0.0 -3.88251e-19 -4.31431 -17.3655 -0.761149 -0.159379 27.5161 0.394189 1.00027 -7.82848 6.244 2.03217e-16 0.0 3.88251e-19 4.91762 -13.9797 -5.6314 0.0706914 23.3323 -0.407407 1.71286 -12.2608 4.95015
-67.6019 83.9424 73.5559 -0.8615 22.4132 0.0104 2.8092 18.5313 6.30631 -0.71841 -7.50062 1.86637 -10.3694 3.1388 -2.33305 8.03494 29.6849 -3.12244 -0.0 0.0 0.0 -0.0 0.0 0.0 1.17217e-13 -1.41424e-13 -4.1077e-13 71.6832 52.8848 3.07113 -28.3786 -33.8756 73.4887 -0.129697 -10.2166 -1.45141 3.073e-10 4.356e-09 -2.15185e-09 5.55018e-10 7.53606e-09 -3.72173e-09 3.07303e-10 4.35598e-09 -2.15186e-09 7.73091 5.47488 0.417314 3.07299e-10 4.35598e-09 -2.15184e-09 2.90554 0.965183 0.102902 3.07303e-10 4.35599e-09 -2.15185e-09 10.2786 0.731801 0.0259123 3.07296e-10 4.35599e-09 -2.15184e-09 2.22167 -0.733487 -0.20892 1.17205e-13 -1.41446e-13 -4.11068e-13 -71.4064 63.3976 -9.97648 27.9748 -30.4644 -67.9903 0.0385447 -5.59373 0.788681 -1.41846e-09 -3.57743e-09 4.14017e-09 -2.46828e-09 -6.27613e-09 7.15436e-09 -1.41846e-09 -3.57743e-09 4.14017e-09 -7.73091 5.47488 -0.417314 -1.41846e-09 -3.57743e-09 4.14017e-09 -2.90554 0.965183 -0.102902 -1.41846e-09 -3.57742e-09 4.14017e-09 -10.2786 0.731801 -0.0259123 -1.41845e-09 -3.57743e-09 4.14016e-09 -2.22167 -0.733487 0.20892 -2.03217e-16 0.0 -3.88251e-19 -4.32613 -16.9928 -1.20351 -0.156689 27.3027 0.39357 0.820047 -7.83464 5.42653 2.03217e-16 0.0 3.88251e-19 5.26391 -14.0516 -4.91629 0.0685951 23.1557 -0.407985 2.15496 -11.913 6.64648
-67.6279 83.9817 73.66 -0.6787 23.7195 0.1862 2.89086 18.3122 6.15197 -0.591679 -7.41639 1.83444 -10.4292 3.13173 -2.3629 8.28742 29.7342 -3.19209 -0.0 0.0 0.0 -0.0 0.0 0.0 1.08971e-13 -1.78206e-13 -2.44563e-13 71.4596 52.958 3.11676 -28.3772 -33.8435 73.4323 -0.13436 -10.3958 -1.47743 2.66532e-10 6.07955e-09 -2.91344e-09 4.89797e-10 1.05202e-08 -5.0399e-09 2.66535e-10 6.07953e-09 -2.91345e-09 7.73091 5.47488 0.417314 2.66531e-10 6.07954e-09 -2.91343e-09 2.90554 0.965183 0.102902 2.66536e-10 6.07955e-09 -2.91344e-09 10.2786 0.731801 0.0259123 2.66528e-10 6.07955e-09 -2.91343e-09 2.22167 -0.733487 -0.20892 1.08941e-13 -1.78239e-13 -2.44893e-13 -71.2819 63.4838 -10.1407 27.9719 -30.4475 -67.9633 0.0381642 -5.56684 0.784865 -1.34175e-09 -3.39101e-09 4.38879e-09 -2.33785e-09 -5.96328e-09 7.58308e-09 -1.34175e-09 -3.39101e-09 4.38879e-09 -7.73091 5.47488 -0.417314 -1.34175e-09 -3.39101e-09 4.38879e-09 -2.90554 0.965183 -0.102902 -1.34175e-09 -3.391e-09 4.38879e-09 -10.2786 0.731801 -0.0259123 -1.34174e-09 -3.39101e-09 4.38878e-09 -2.22167 -0.733487 0.20892 -2.03217e-16 0.0 -3.88251e-19 -4.27575 -16.6039 -1.61298 -0.153962 27.0842 0.393 0.628041 -7.82408 4.55881 2.03217e-16 0.0 3.88251e-19 5.65584 -14.1273 -4.18015 0.0668851 22.9974 -0.407535 2.53066 -11.601 8.14544
-67.6784 84.0239 73.781 -0.7096 25.0199 0.2374 3.01381 18.1451 6.00426 -0.470016 -7.34998 1.80605 -10.4635 3.13278 -2.38707 8.44115 29.7443 -3.22981 -0.0 0.0 0.0 -0.0 0.0 0.0 1.24839e-13 -1.90815e-13 -2.44704e-13 71.2765 53.0183 3.13302 -28.3758 -33.8132 73.3798 -0.137589 -10.5163 -1.49496 1.54098e-10 6.24667e-09 -2.88625e-09 2.95872e-10 1.08115e-08 -4.99481e-09 1.54101e-10 6.24666e-09 -2.88626e-09 7.73091 5.47488 0.417314 1.54095e-10 6.24666e-09 -2.88623e-09 2.90554 0.965183 0.102902 1.54102e-10 6.24667e-09 -2.88625e-09 10.2786 0.731801 0.0259123 1.54094e-10 6.24667e-09 -2.88625e-09 2.22167 -0.733487 -0.20892 1.24794e-13 -1.90852e-13 -2.45052e-13 -71.1602 63.5569 -10.2988 27.9699 -30.4358 -67.9447 0.0377985 -5.54058 0.781138 -1.578e-09 -5.42096e-09 4.87259e-09 -2.74773e-09 -9.47946e-09 8.41833e-09 -1.578e-09 -5.42097e-09 4.87259e-09 -7.73091 5.47488 -0.417314 -1.578e-09 -5.42096e-09 4.8726e-09 -2.90554 0.965183 -0.102902 -1.57801e-09 -5.42096e-09 4.87259e-09 -10.2786 0.731801 -0.0259123 -1.57799e-09 -5.42096e-09 4.87258e-09 -2.22167 -0.733487 0.20892 -2.03217e-16 0.0 -3.88251e-19 -4.14517 -16.2154 -1.96154 -0.151582 26.894 0.393007 0.421568 -7.80628 3.62155 2.03217e-16 0.0 3.88251e-19 6.08998 -14.2012 -3.42482 0.0652984 22.8666 -0.407831 2.88654 -11.3685 9.57246
